<?xml version="1.0" standalone="no"?>
<!DOCTYPE svg PUBLIC "-//W3C//DTD SVG 20010904//EN"
 "http://www.w3.org/TR/2001/REC-SVG-20010904/DTD/svg10.dtd">
<svg version="1.0" xmlns="http://www.w3.org/2000/svg"
 width="1080.000000pt" height="1080.000000pt" viewBox="0 0 1080.000000 1080.000000"
 preserveAspectRatio="xMidYMid meet">
<metadata>
Created by potrace 1.14, written by Peter Selinger 2001-2017
</metadata>
<g transform="translate(0.000000,1080.000000) scale(0.100000,-0.100000)"
fill="#000000" stroke="none">
<path d="M0 5400 l0 -5400 4545 0 4545 0 0 180 0 180 850 0 850 0 3 -182 c1
-101 3 2248 5 5220 l2 5402 -5400 0 -5400 0 0 -5400z m3051 1435 c19 -10 48
-27 64 -40 18 -13 218 -312 485 -723 250 -386 457 -701 460 -701 3 -1 210 306
460 681 250 375 470 699 489 721 118 133 333 103 407 -57 l24 -51 0 -1255 0
-1255 -24 -51 c-43 -92 -117 -134 -237 -134 -108 1 -183 45 -225 135 l-24 50
0 860 c0 727 -2 857 -14 845 -7 -8 -159 -238 -336 -510 -178 -272 -339 -512
-359 -533 -53 -57 -105 -81 -176 -81 -70 -1 -120 20 -175 73 -20 20 -187 275
-371 566 l-334 530 -5 -880 c-6 -971 -1 -910 -69 -988 -45 -50 -103 -70 -190
-65 -88 5 -140 37 -185 118 l-31 55 -3 1239 c-3 1408 -8 1311 77 1396 58 58
120 82 202 76 31 -2 71 -12 90 -21z m5072 -5 c103 -49 157 -124 157 -221 0
-31 -8 -71 -19 -94 -10 -22 -374 -497 -809 -1055 l-791 -1015 697 -5 c527 -4
704 -8 725 -18 92 -40 138 -112 138 -216 0 -74 -20 -123 -73 -173 -69 -67 -7
-63 -1080 -63 -924 0 -975 1 -1014 19 -129 59 -189 200 -135 316 10 22 374
497 808 1055 l789 1015 -636 5 c-700 6 -661 2 -733 69 -53 48 -69 95 -65 182
3 67 7 83 33 120 19 27 50 54 84 71 l53 28 914 0 c894 0 915 0 957 -20z"/>
<path d="M9130 320 c-18 -18 -20 -33 -20 -144 0 -123 0 -125 26 -145 23 -18
41 -21 134 -21 93 0 111 3 134 21 26 20 26 22 26 145 0 166 2 164 -160 164
-107 0 -122 -2 -140 -20z m118 -77 c2 -8 -6 -13 -22 -13 -35 0 -33 -16 4 -35
54 -28 29 -92 -32 -83 -35 5 -34 28 1 28 35 0 43 25 12 35 -61 19 -45 88 18
81 8 0 16 -7 19 -13z m124 -48 c15 -33 -3 -72 -37 -81 -16 -4 -25 -13 -25 -25
0 -10 -7 -19 -15 -19 -12 0 -15 14 -15 68 0 38 3 72 7 75 3 4 21 7 40 7 26 0
36 -6 45 -25z"/>
<path d="M9310 164 c0 -23 4 -34 12 -32 33 11 36 68 3 68 -11 0 -15 -10 -15
-36z"/>
<path d="M9720 240 c0 -13 -9 -22 -25 -26 -66 -17 -55 -124 12 -124 49 0 53 8
53 91 0 72 -2 79 -20 79 -13 0 -20 -7 -20 -20z m0 -90 c0 -33 -14 -40 -28 -12
-12 21 -5 42 14 42 9 0 14 -11 14 -30z"/>
<path d="M9902 178 c3 -81 4 -83 29 -86 32 -4 79 32 79 62 0 33 -22 58 -53 59
-21 2 -27 7 -27 25 0 13 -6 22 -15 22 -13 0 -15 -14 -13 -82z m68 -22 c0 -20
-16 -36 -36 -36 -2 0 -4 14 -4 30 0 23 4 30 20 30 14 0 20 -7 20 -24z"/>
<path d="M10610 175 c0 -71 3 -85 16 -85 9 0 18 9 21 20 l6 21 14 -21 c8 -11
23 -20 34 -20 24 0 24 4 -3 40 -20 28 -20 31 -5 48 9 10 17 22 17 25 0 14 -33
6 -46 -10 -12 -16 -13 -13 -14 25 0 35 -3 42 -20 42 -18 0 -20 -7 -20 -85z"/>
<path d="M9532 182 c-12 -38 -22 -74 -22 -80 0 -20 28 -13 35 8 9 27 51 27 60
0 4 -11 15 -20 27 -20 15 0 18 4 13 18 -3 9 -15 45 -27 80 -16 51 -24 62 -42
62 -18 0 -26 -11 -44 -68z m57 -14 c1 -5 -6 -8 -15 -8 -11 0 -14 5 -10 16 3 9
6 21 7 27 0 12 17 -20 18 -35z"/>
<path d="M10192 238 c-22 -22 -14 -58 18 -76 36 -20 34 -38 -4 -34 -22 2 -27
-1 -24 -15 4 -25 60 -30 82 -7 24 24 16 56 -21 79 -41 25 -42 39 -3 33 24 -4
30 -1 30 14 0 14 -8 18 -33 18 -18 0 -38 -5 -45 -12z"/>
<path d="M9810 213 c-60 -22 -47 -123 16 -123 55 0 78 76 34 112 -23 19 -26
20 -50 11z m40 -57 c0 -32 -20 -44 -36 -22 -16 23 -7 46 17 46 13 0 19 -7 19
-24z"/>
<path d="M10042 204 c-27 -18 -30 -74 -6 -99 21 -20 68 -16 72 7 2 12 -2 15
-16 11 -11 -2 -23 0 -26 6 -5 7 4 11 23 11 26 0 31 4 31 23 0 46 -41 67 -78
41z m43 -24 c3 -5 -3 -10 -15 -10 -12 0 -18 5 -15 10 3 6 10 10 15 10 5 0 12
-4 15 -10z"/>
<path d="M10313 210 c-21 -9 -23 -16 -23 -85 0 -68 2 -75 20 -75 12 0 20 7 20
18 0 9 15 24 33 32 26 12 33 21 35 52 2 28 -2 40 -20 52 -25 18 -33 19 -65 6z
m53 -45 c6 -16 -12 -45 -27 -45 -5 0 -9 14 -9 30 0 32 26 43 36 15z"/>
<path d="M10438 213 c-29 -7 -21 -33 10 -34 26 -1 26 -1 3 -8 -74 -20 -40 -95
35 -77 21 6 24 12 24 51 0 34 -5 47 -22 59 -12 9 -25 15 -28 15 -3 -1 -13 -3
-22 -6z m32 -83 c0 -5 -4 -10 -10 -10 -5 0 -10 5 -10 10 0 6 5 10 10 10 6 0
10 -4 10 -10z"/>
<path d="M10581 211 c-7 -5 -22 -6 -32 -4 -17 5 -19 -1 -19 -56 0 -48 3 -61
15 -61 11 0 15 11 15 41 0 32 4 42 20 46 11 3 20 14 20 24 0 22 0 22 -19 10z"/>
</g>
</svg>
